<svg width="800" height="800" viewBox="0 0 800 800" fill="none" xmlns="http://www.w3.org/2000/svg">
<path d="M720.367 223.051C720.367 172.155 700.135 123.345 664.127 87.3565C628.118 51.3679 579.282 31.1501 528.357 31.1501H271.011C220.087 31.1501 171.249 51.3679 135.241 87.3565C99.2319 123.345 79 172.155 79 223.051" fill="#F9FEE5"/>
<path d="M720.367 223.051C720.367 172.155 700.135 123.345 664.127 87.3565C628.118 51.3679 579.282 31.1501 528.357 31.1501H271.011C220.087 31.1501 171.249 51.3679 135.241 87.3565C99.2319 123.345 79 172.155 79 223.051" stroke="#008F62" stroke-width="48" stroke-linecap="round" stroke-linejoin="round"/>
<path d="M79.2441 223.051V724.639C78.3029 732.596 80.1011 740.633 84.3405 747.431C88.5796 754.226 95.0077 759.378 102.568 762.038C110.128 764.698 118.369 764.702 125.933 762.054C133.497 759.41 139.935 754.266 144.185 747.475L215.134 632.094C217.722 627.366 221.42 623.336 225.912 620.351C230.403 617.371 235.555 615.524 240.919 614.975C246.284 614.422 251.7 615.179 256.705 617.186C261.71 619.194 266.153 622.383 269.65 626.485L369.862 739.062C373.626 743.325 378.252 746.738 383.435 749.078C388.618 751.417 394.242 752.627 399.926 752.627C405.614 752.627 411.238 751.417 416.421 749.078C421.604 746.738 426.23 743.325 429.99 739.062L530.204 626.485C533.703 622.383 538.145 619.194 543.151 617.186C548.154 615.179 553.574 614.422 558.937 614.975C564.3 615.524 569.451 617.371 573.945 620.351C578.435 623.336 582.134 627.366 584.724 632.094L655.671 747.475C659.924 754.266 666.362 759.41 673.926 762.054C681.49 764.702 689.728 764.698 697.288 762.038C704.848 759.378 711.278 754.226 715.519 747.431C719.756 740.633 721.551 732.596 720.609 724.639V223.051" fill="#F9FEE5"/>
<path d="M79.2441 223.051V724.639C78.3029 732.596 80.1011 740.633 84.3405 747.431C88.5796 754.226 95.0077 759.378 102.568 762.038C110.128 764.698 118.369 764.702 125.933 762.054C133.497 759.41 139.935 754.266 144.185 747.475L215.134 632.094C217.722 627.366 221.42 623.336 225.912 620.351C230.403 617.371 235.555 615.524 240.919 614.975C246.284 614.422 251.7 615.179 256.705 617.186C261.71 619.194 266.153 622.383 269.65 626.485L369.862 739.062C373.626 743.325 378.252 746.738 383.435 749.078C388.618 751.417 394.242 752.627 399.926 752.627C405.614 752.627 411.238 751.417 416.421 749.078C421.604 746.738 426.23 743.325 429.99 739.062L530.204 626.485C533.703 622.383 538.145 619.194 543.151 617.186C548.154 615.179 553.574 614.422 558.937 614.975C564.3 615.524 569.451 617.371 573.945 620.351C578.435 623.336 582.134 627.366 584.724 632.094L655.671 747.475C659.924 754.266 666.362 759.41 673.926 762.054C681.49 764.702 689.728 764.698 697.288 762.038C704.848 759.378 711.278 754.226 715.519 747.431C719.756 740.633 721.551 732.596 720.609 724.639V223.051" stroke="#008F62" stroke-width="48" stroke-linecap="round" stroke-linejoin="round"/>
<path d="M501.503 195.31C505.656 195.31 508.771 196.942 510.848 200.205C512.925 203.468 513.963 207.177 513.963 211.33C513.963 216.967 511.59 222.603 506.843 228.24L489.488 250.49C455.668 294.693 428.523 331.332 408.053 360.405C387.583 389.478 367.855 421.37 348.868 456.08C339.671 473.88 329.14 482.78 317.273 482.78C311.933 482.78 307.186 481.445 303.033 478.775C298.88 475.808 296.803 470.913 296.803 464.09C296.803 459.64 298.138 455.932 300.808 452.965C310.598 439.022 328.101 413.063 353.318 375.09C377.051 339.787 396.631 311.01 412.058 288.76C427.781 266.213 443.06 245.743 457.893 227.35C459.08 225.867 461.898 222.158 466.348 216.225C471.095 210.292 476.435 205.397 482.368 201.54C488.301 197.387 494.68 195.31 501.503 195.31ZM325.283 200.205C334.183 200.205 343.231 202.282 352.428 206.435C361.921 210.588 369.783 216.522 376.013 224.235C382.243 231.652 385.358 239.958 385.358 249.155C385.358 262.208 382.54 274.075 376.903 284.755C371.266 295.435 363.553 303.89 353.763 310.12C343.973 316.053 333.145 319.02 321.278 319.02C302.588 319.02 287.606 313.532 276.333 302.555C265.059 291.282 259.423 276.597 259.423 258.5C259.423 239.513 265.208 225.125 276.778 215.335C288.644 205.248 304.813 200.205 325.283 200.205ZM315.493 285.2C336.853 285.2 347.533 273.778 347.533 250.935C347.533 245.298 345.456 241.145 341.303 238.475C337.446 235.805 331.216 234.47 322.613 234.47C313.12 234.47 305.851 236.992 300.808 242.035C296.061 246.782 293.688 252.27 293.688 258.5C293.688 265.323 295.765 271.553 299.918 277.19C304.071 282.53 309.263 285.2 315.493 285.2ZM541.553 418.7C541.553 430.27 538.29 440.653 531.763 449.85C525.533 458.75 517.078 465.722 506.398 470.765C496.015 475.808 485.038 478.33 473.468 478.33C463.678 478.33 454.481 475.957 445.878 471.21C437.275 466.167 430.303 459.343 424.963 450.74C419.92 442.137 417.398 432.495 417.398 421.815C417.398 410.838 420.068 400.455 425.408 390.665C431.045 380.875 439.055 373.013 449.438 367.08C459.821 360.85 471.985 357.735 485.928 357.735C504.025 357.735 517.82 363.075 527.313 373.755C536.806 384.138 541.553 399.12 541.553 418.7ZM482.368 391.555C473.765 391.555 466.793 393.78 461.453 398.23C456.41 402.68 453.888 409.652 453.888 419.145C453.888 427.452 455.965 433.83 460.118 438.28C464.271 442.73 468.721 444.955 473.468 444.955C496.311 444.955 507.733 434.72 507.733 414.25C507.733 407.427 505.508 401.938 501.058 397.785C496.608 393.632 490.378 391.555 482.368 391.555Z" fill="#008F62"/>
</svg>
